<?xml version="1.0" encoding="utf-8"?>
<!-- Generator: Adobe Illustrator 24.1.2, SVG Export Plug-In . SVG Version: 6.00 Build 0)  -->
<svg version="1.1" id="Layer_1" xmlns="http://www.w3.org/2000/svg" xmlns:xlink="http://www.w3.org/1999/xlink" x="0px" y="0px"
	 viewBox="0 0 174.8 98.3" style="enable-background:new 0 0 174.8 98.3;" xml:space="preserve">
<style type="text/css">
	.st0{fill:#000;}
</style>
<polygon class="st0" points="10.5,15.5 14.9,15.5 14.9,25.3 26.4,25.3 26.4,15.5 30.7,15.5 30.7,40.1 26.4,40.1 26.4,29.3 
	14.9,29.3 14.9,40.1 10.5,40.1 "/>
<polygon class="st0" points="46.6,15.5 62.4,15.5 62.4,19.5 51,19.5 51,25.9 61.8,25.9 61.8,29.8 51,29.8 51,40.1 46.6,40.1 "/>
<g>
	<path class="st0" d="M80.6,36.3h4c2.2,0,5.4-0.4,5.4-3.6c0-2.6-1.7-3.5-5.2-3.5h-4.2V36.3z M80.6,25.5h3.9c2.9,0,4.4-1.3,4.4-3.1
		c0-1.8-1.5-3.2-4.8-3.2h-3.5V25.5z M76.2,15.5h9.6c3.7,0,7.5,1.7,7.5,6.2c0,2.6-1.8,4.8-4.3,5.4c3,0.3,5.3,2.8,5.3,5.9
		c0,5.4-4.6,7-9.3,7h-8.9V15.5z"/>
</g>
<polygon class="st0" points="108.4,15.5 112.7,15.5 112.7,25.9 113,25.9 123.1,15.5 129,15.5 117.5,26.9 129.8,40.1 123.7,40.1 
	113,28 112.7,28 112.7,40.1 108.4,40.1 "/>
<polygon class="st0" points="10.5,50.9 12.2,50.9 12.2,54.8 16.8,54.8 16.8,50.9 18.6,50.9 18.6,60.7 16.8,60.7 16.8,56.3 
	12.3,56.3 12.3,60.6 10.5,60.6 "/>
<g>
	<path class="st0" d="M23.8,59.2c1.1,0,2-0.9,2-2s-0.9-2-2-2c-1.1,0-2,0.9-2,2C21.8,58.4,22.7,59.3,23.8,59.2
		C23.8,59.3,23.8,59.3,23.8,59.2L23.8,59.2z M23.8,53.8c1.9-0.1,3.6,1.3,3.7,3.2c0.1,1.9-1.3,3.6-3.2,3.7c-0.2,0-0.3,0-0.5,0
		c-1.9,0.1-3.6-1.3-3.7-3.2c-0.1-1.9,1.3-3.6,3.2-3.7C23.5,53.8,23.6,53.8,23.8,53.8"/>
	<path class="st0" d="M33.4,56c-0.3-0.4-0.7-0.6-1.2-0.7c-1.1,0-2,0.9-2,2c0,1.1,0.9,2,2,2c0.5,0,1-0.2,1.3-0.6l1.1,1.2
		c-0.7,0.6-1.5,0.9-2.4,0.9c-1.9,0.1-3.6-1.3-3.7-3.2c-0.1-1.9,1.3-3.6,3.2-3.7c0.2,0,0.3,0,0.5,0c0.9,0,1.8,0.4,2.4,1L33.4,56z"/>
	<path class="st0" d="M37.1,55L37.1,55c0.4-0.7,1.1-1.1,2-1.1c1.3-0.1,2.4,0.9,2.4,2.2c0,0.1,0,0.3,0,0.4v4.1h-1.7v-3.3
		c0-0.7,0-2-1.2-2c-0.8,0-1.5,0.6-1.5,1.5c0,0.1,0,0.1,0,0.2v3.6h-1.6V50.2h1.6L37.1,55z"/>
	<path class="st0" d="M46.9,55.9c-0.3-0.4-0.8-0.7-1.3-0.7c-0.4,0-1,0.2-1,0.7c0,1.2,3.6,0.2,3.6,2.8c0,1.5-1.5,2.1-2.8,2.1
		c-1,0.1-1.9-0.3-2.6-1l1.1-1c0.4,0.5,0.9,0.8,1.5,0.8c0.5,0,1.1-0.2,1.1-0.7c0-1.4-3.6-0.3-3.6-2.8c0-1.5,1.3-2.1,2.6-2.1
		c0.9-0.1,1.8,0.3,2.3,1L46.9,55.9z"/>
	<path class="st0" d="M53.9,56c-0.3-0.4-0.7-0.6-1.2-0.7c-1.1,0-2,0.9-2,2c0,1.1,0.9,2,2,2c0.5,0,1-0.2,1.3-0.6l1.1,1.2
		c-0.7,0.6-1.5,0.9-2.4,0.9c-1.9,0.1-3.6-1.3-3.7-3.2c-0.1-1.9,1.3-3.6,3.2-3.7c0.2,0,0.3,0,0.5,0c0.9,0,1.8,0.4,2.4,1L53.9,56z"/>
	<path class="st0" d="M57.7,55L57.7,55c0.4-0.7,1.1-1.1,2-1.1c1.3-0.1,2.4,0.9,2.4,2.2c0,0.1,0,0.3,0,0.4v4.1h-1.6v-3.3
		c0-0.7,0-2-1.2-2c-0.8,0-1.5,0.6-1.5,1.5c0,0.1,0,0.1,0,0.2v3.6H56V50.2h1.6V55z"/>
	<path class="st0" d="M69.9,60.6h-1.5v-1c-0.3,0.8-1.1,1.3-2,1.2C65.1,61,64.1,60,64,58.8c0-0.2,0-0.3,0-0.5v-4.2h1.6v3.3
		c0,0.7,0,2,1.2,2c1.2,0,1.5-0.8,1.5-1.7v-3.6H70L69.9,60.6z"/>
</g>
<rect x="71.8" y="50.3" class="st0" width="1.6" height="10.4"/>
<g>
	<path class="st0" d="M80,56.7c0-0.8-0.6-1.5-1.5-1.6c-0.1,0-0.1,0-0.2,0c-0.9,0-1.7,0.7-1.7,1.6H80z M76.6,57.9
		c0.1,0.9,0.8,1.6,1.8,1.6c0.7,0,1.4-0.3,1.8-0.9l1.2,0.9c-0.7,0.9-1.7,1.3-2.8,1.3c-1.9,0.1-3.6-1.3-3.7-3.2
		c-0.1-1.9,1.3-3.6,3.2-3.7c0.2,0,0.3,0,0.5,0c1.8,0,3.1,1.3,3.1,3.6v0.4H76.6z"/>
	<path class="st0" d="M87.8,55.4h-1.4v-1.4h1.4v-0.9c0-1.8,0.4-3,2.4-3c0.3,0,0.7,0,1,0.1v1.4c-0.2,0-0.5,0-0.7,0
		c-0.9,0-1.1,0.6-1.1,1.3v1.2H91v1.4h-1.5v5.2h-1.6L87.8,55.4z"/>
	<path class="st0" d="M96.4,50.8c0.5,0,1,0.5,0.9,1.1c0,0.5-0.5,1-1.1,0.9c-0.5,0-0.9-0.5-0.9-1C95.4,51.3,95.9,50.9,96.4,50.8
		C96.5,50.9,96.5,50.9,96.4,50.8L96.4,50.8z M93.6,50.8c0.6,0,1,0.4,1,1c0,0.6-0.4,1-1,1c-0.6,0-1-0.4-1-1c0,0,0,0,0,0
		C92.7,51.3,93.1,50.9,93.6,50.8L93.6,50.8z M98,60.6h-1.5v-1c-0.3,0.8-1.1,1.3-2,1.2c-1.2,0.1-2.3-0.9-2.4-2.1c0-0.2,0-0.3,0-0.5
		v-4.2h1.6v3.3c0,0.7,0,2,1.2,2c0.8,0,1.5-0.6,1.5-1.5c0-0.1,0-0.2,0-0.2v-3.6h1.6L98,60.6z"/>
	<path class="st0" d="M99.9,54.1h1.6v1c0.3-0.8,1.1-1.2,2-1.2c0.2,0,0.4,0,0.6,0.1v1.6c-0.3-0.1-0.5-0.1-0.8-0.1
		c-0.9-0.1-1.7,0.6-1.8,1.6c0,0,0,0.1,0,0.1v3.5h-1.6L99.9,54.1z"/>
	<path class="st0" d="M112.8,55.4c-1.1,0-2,0.9-2,2c0,1.1,0.9,2,2,2c1.1,0,2-0.9,2-2C114.7,56.2,113.8,55.4,112.8,55.4 M109.3,50.3
		h1.6v4.6c0.5-0.7,1.4-1.1,2.3-1.1c1.8,0,3.2,1.5,3.2,3.3c0,0.1,0,0.1,0,0.2c0.1,1.8-1.2,3.3-2.9,3.4c-0.1,0-0.2,0-0.3,0
		c-0.9,0.1-1.7-0.3-2.3-1v1h-1.6L109.3,50.3z"/>
	<path class="st0" d="M117.9,54.1h1.6v6.6h-1.6V54.1z M118.7,50.8c0.5-0.1,1.1,0.2,1.2,0.8c0.1,0.5-0.2,1.1-0.8,1.2
		c-0.1,0-0.3,0-0.4,0c-0.5,0.1-1.1-0.2-1.2-0.8c-0.1-0.5,0.2-1.1,0.8-1.2C118.4,50.8,118.6,50.8,118.7,50.8"/>
</g>
<rect x="121.4" y="50.3" class="st0" width="1.7" height="10.4"/>
<g>
	<path class="st0" d="M128.2,59.3c1.1,0,2-0.9,2-2c0-1.1-0.9-2-2-2c-1.1,0-2,0.9-2,2C126.3,58.5,127.2,59.3,128.2,59.3L128.2,59.3z
		 M130.2,59.7L130.2,59.7c-0.5,0.8-1.4,1.2-2.3,1.1c-1.8,0-3.2-1.4-3.3-3.1c0-0.1,0-0.2,0-0.3c-0.2-1.8,1.1-3.4,2.9-3.5
		c0.1,0,0.2,0,0.3,0c0.9,0,1.7,0.3,2.2,1v-4.6h1.7v10.4h-1.6L130.2,59.7z"/>
	<path class="st0" d="M138.3,56.7c0-0.8-0.6-1.5-1.5-1.6c-0.1,0-0.1,0-0.2,0c-0.9,0-1.7,0.7-1.7,1.6H138.3z M134.9,57.9
		c0.1,0.9,0.9,1.6,1.8,1.6c0.7,0,1.4-0.3,1.8-0.9l1.2,0.9c-1.2,1.5-3.4,1.8-4.9,0.6c-1.5-1.2-1.8-3.4-0.6-4.9
		c0.7-0.9,1.7-1.4,2.8-1.4c1.8,0,3.1,1.3,3.1,3.6v0.5L134.9,57.9z"/>
	<path class="st0" d="M141.5,54.1h1.6v1.1c0.3-0.8,1.1-1.3,2-1.2c1.3-0.1,2.4,0.9,2.4,2.2c0,0.1,0,0.3,0,0.4v4.1h-1.6v-3.3
		c0-0.7,0-2-1.2-2c-0.8,0-1.5,0.6-1.5,1.5c0,0.1,0,0.1,0,0.2v3.6h-1.6V54.1z"/>
	<path class="st0" d="M152.6,59.3c1.1,0,2-0.9,2-2c0-1.1-0.9-2-2-2c-1.1,0-2,0.9-2,2C150.6,58.5,151.5,59.3,152.6,59.3 M154.5,59.7
		L154.5,59.7c-0.5,0.8-1.4,1.2-2.3,1.1c-1.8,0-3.2-1.4-3.3-3.1c0-0.1,0-0.2,0-0.3c-0.2-1.8,1.1-3.4,2.9-3.5c0.1,0,0.2,0,0.3,0
		c0.9,0,1.7,0.3,2.2,1v-4.6h1.6v10.4h-1.6L154.5,59.7z"/>
	<path class="st0" d="M162.6,56.7c0-0.8-0.6-1.5-1.5-1.6c-0.1,0-0.1,0-0.2,0c-0.9,0-1.7,0.7-1.7,1.6H162.6z M159.3,57.9
		c0.1,0.9,0.8,1.6,1.8,1.6c0.7,0,1.4-0.3,1.8-0.9l1.2,0.9c-0.7,0.9-1.7,1.3-2.8,1.3c-1.9,0.1-3.6-1.3-3.7-3.2
		c-0.1-1.9,1.3-3.6,3.2-3.7c0.2,0,0.3,0,0.5,0c1.8,0,3.1,1.3,3.1,3.6v0.4H159.3z"/>
</g>
<polygon class="st0" points="10.5,69 12.2,69 12.2,73.1 12.5,73.1 16.4,69 18.7,69 14.2,73.5 19,78.7 16.6,78.7 12.5,73.9 
	12.3,73.9 12.3,78.7 10.5,78.7 "/>
<g>
	<path class="st0" d="M24.2,68.9c0.5-0.1,1.1,0.2,1.2,0.8c0.1,0.5-0.2,1.1-0.8,1.2c-0.1,0-0.3,0-0.4,0c-0.5,0.1-1.1-0.2-1.2-0.8
		c-0.1-0.5,0.2-1.1,0.8-1.2C23.9,68.9,24.1,68.9,24.2,68.9 M21.4,68.9c0.5-0.1,1.1,0.2,1.2,0.8c0.1,0.5-0.2,1.1-0.8,1.2
		c-0.1,0-0.3,0-0.4,0c-0.5,0.1-1.1-0.2-1.2-0.8c-0.1-0.5,0.2-1.1,0.8-1.2C21.1,68.9,21.2,68.9,21.4,68.9 M25.8,78.7h-1.6v-1.1
		c-0.3,0.8-1.1,1.2-2,1.2C21,79,19.9,78,19.8,76.8c0-0.2,0-0.3,0-0.5v-4.1h1.6v3.3c0,0.7,0,2,1.2,2c0.8,0,1.5-0.6,1.6-1.4
		c0-0.1,0-0.2,0-0.3v-3.6h1.6L25.8,78.7z"/>
	<path class="st0" d="M27.6,72.1h1.6v1.1c0.3-0.8,1.1-1.3,2-1.2c1.3-0.1,2.3,0.9,2.4,2.1c0,0.2,0,0.3,0,0.5v4.1H32v-3.4
		c0-0.7,0-2-1.2-2c-0.8,0-1.5,0.6-1.5,1.5c0,0.1,0,0.1,0,0.2v3.6h-1.6V72.1z"/>
	<path class="st0" d="M39,74c-0.3-0.4-0.8-0.7-1.3-0.7c-0.4,0-1,0.2-1,0.7c0,1.2,3.6,0.2,3.6,2.8c0,1.5-1.5,2.1-2.8,2.1
		c-1,0.1-1.9-0.3-2.6-1l1.1-1c0.4,0.5,0.9,0.8,1.6,0.8c0.5,0,1.1-0.2,1.1-0.7c0-1.4-3.6-0.3-3.6-2.8c0-1.5,1.3-2.1,2.6-2.1
		c0.9-0.1,1.8,0.3,2.3,1L39,74z"/>
	<path class="st0" d="M40.8,73.5v-1.4h1.4v-2h1.6v2h2v1.4h-2v2.9c0,0.7,0.2,1.1,0.9,1.1c0.4,0,0.7,0,1-0.2v1.4
		c-0.4,0.2-0.8,0.2-1.3,0.2c-1.7,0-2.2-0.8-2.2-2.3v-3H40.8z"/>
	<path class="st0" d="M51.6,74.8c0-0.8-0.6-1.5-1.5-1.6c-0.1,0-0.1,0-0.2,0c-0.9,0-1.7,0.7-1.7,1.6H51.6z M48.2,76
		c0.1,0.9,0.9,1.6,1.8,1.6c0.7,0,1.4-0.3,1.8-0.9l1.2,0.9c-0.7,0.9-1.7,1.3-2.8,1.3c-1.9,0.1-3.6-1.3-3.7-3.2
		c-0.1-1.9,1.3-3.6,3.2-3.7c0.2,0,0.3,0,0.5,0c1.8,0,3.1,1.3,3.1,3.6V76H48.2z"/>
</g>
<polygon class="st0" points="59,69 60.7,69 60.7,72.9 65.2,72.9 65.2,69 67,69 67,78.8 65.2,78.8 65.2,74.4 60.7,74.4 60.7,78.7 
	59,78.7 "/>
<g>
	<path class="st0" d="M73.1,75.8h-0.4c-0.9,0-2.5,0-2.5,1c0,0.6,0.6,0.9,1.2,0.9c1.1,0,1.7-0.6,1.7-1.5V75.8z M73.1,77.8L73.1,77.8
		c-0.5,0.7-1.3,1.1-2.1,1.1c-1.2,0.1-2.3-0.7-2.4-1.9c0,0,0-0.1,0-0.1c0-2.1,2.5-2.3,4.1-2.3h0.4v-0.2c0-0.8-0.6-1.2-1.5-1.2
		c-0.7,0-1.3,0.2-1.8,0.7L68.9,73c0.8-0.7,1.8-1.1,2.8-1.1c2.8,0,2.8,2,2.8,3v3.8h-1.5V77.8z"/>
	<path class="st0" d="M76.2,72.1h1.6v1c0.4-0.7,1.1-1.2,2-1.2c0.9-0.1,1.6,0.4,2,1.2c0.4-0.8,1.3-1.3,2.2-1.2c1.8,0,2.4,1.3,2.4,2.8
		v3.9h-1.4V75c0-0.8-0.2-1.5-1.2-1.5c-1,0-1.4,0.8-1.4,1.7v3.6h-1.6v-3.9c0-0.8-0.3-1.3-1.1-1.3c-0.8,0-1.5,0.6-1.5,1.5
		c0,0.1,0,0.1,0,0.2v3.6h-1.6L76.2,72.1z"/>
	<path class="st0" d="M91.7,73.4c-1.1,0-2,0.9-2,2c0,1.1,0.9,2,2,2c1.1,0,2-0.9,2-2C93.7,74.3,92.8,73.4,91.7,73.4z M88.2,68.3h1.6
		V73c0.5-0.7,1.4-1.1,2.2-1c1.8,0,3.2,1.5,3.2,3.3c0,0.1,0,0.1,0,0.2c0.1,1.8-1.2,3.3-2.9,3.4c-0.1,0-0.2,0-0.3,0
		c-0.9,0-1.8-0.4-2.2-1.1v1h-1.5V68.3z"/>
	<path class="st0" d="M102.8,78.7h-1.6v-1.1c-0.3,0.8-1.1,1.3-2,1.2C98,78.9,97,78,96.9,76.7c0-0.2,0-0.3,0-0.5v-4.1h1.6v3.3
		c0,0.7,0,2,1.2,2c1.2,0,1.5-0.8,1.5-1.7v-3.6h1.6V78.7z"/>
	<path class="st0" d="M104.7,72.1h1.6v1c0.3-0.8,1.1-1.2,2-1.2c0.2,0,0.4,0,0.6,0.1v1.6c-0.3-0.1-0.5-0.1-0.8-0.1
		c-0.9-0.1-1.7,0.7-1.8,1.6c0,0,0,0.1,0,0.1v3.5h-1.6L104.7,72.1z"/>
	<path class="st0" d="M111.1,75.4c0,1.1,0.9,2,2,2c1.1,0,2-0.9,2-2c0-1.1-0.9-2-2-2C112,73.4,111.1,74.3,111.1,75.4 M116.5,72.1v6
		c0.3,1.9-1,3.6-2.8,3.9c-0.3,0-0.6,0.1-0.9,0c-1.2,0.1-2.3-0.3-3.3-1.1l1-1.3c0.6,0.6,1.4,0.9,2.2,0.9c1.6,0,2.1-0.9,2.1-2.2v-0.5
		c-0.5,0.6-1.3,1-2.2,1c-1.8,0-3.2-1.4-3.3-3.2c0-0.1,0-0.1,0-0.2c-0.2-1.8,1.1-3.3,2.9-3.5c0.1,0,0.2,0,0.3,0
		c0.9,0,1.8,0.4,2.3,1.2v-1L116.5,72.1z"/>
</g>
</svg>
